<svg width="128" height="128" viewBox="0 0 128 128" fill="none" xmlns="http://www.w3.org/2000/svg">
  <rect width="128" height="128" rx="28" fill="#F4F8FD"/>
  <path d="M63 26C56.4 26 51 31.4 51 38V43L42 57V66H54L59 100C59.6 104.1 63.2 107 67.4 107H88.1C92.1 107 95.6 104.3 96.5 100.4L101 81L108 59L99 54L92 72L87 56C84.5 47.8 77.1 42 68.5 42H61V38C61 35.8 62.8 34 65 34H82V26H63Z" fill="#202734"/>
  <circle cx="75" cy="21" r="13" fill="#202734"/>
  <path d="M32 67H97C101.4 67 105 70.6 105 75V82H29V70C29 68.3 30.3 67 32 67Z" fill="#0B0E14"/>
  <path d="M34 69H100C102.2 69 104 70.8 104 73V78H31V72C31 70.3 32.3 69 34 69Z" fill="#D9DEE8"/>
  <path d="M24 82H115C117.2 82 119 83.8 119 86V90C119 92.2 117.2 94 115 94H24C21.8 94 20 92.2 20 90V86C20 83.8 21.8 82 24 82Z" fill="#181C24"/>
  <path d="M68 46L85 59L80 74L60 75L53 59L68 46Z" fill="#0A84FF"/>
  <path d="M63 46C65.9 49 71.1 49 74 46L77 51L68 58L59 51L63 46Z" fill="#F4C39A"/>
  <path d="M60 26.5C60 18.5 66.5 12 74.5 12C81.3 12 87.1 16.7 88.6 23.1C86 23.6 84.2 25.6 83 27.8C81.2 26.3 78.9 25.4 76.4 25.4C72.8 25.4 69.5 27.3 67.7 30.2C65 29.7 62.4 28.4 60.5 26.4L60 26.5Z" fill="#F7C9A2"/>
</svg>
