<svg width="620" height="128" viewBox="0 0 620 128" fill="none" xmlns="http://www.w3.org/2000/svg">
  <rect width="620" height="128" rx="24" fill="transparent"/>
  <g transform="translate(10 8)">
    <path d="M58 24C51.4 24 46 29.4 46 36V41L37 55V64H49L54 98C54.6 102.1 58.2 105 62.4 105H83.1C87.1 105 90.6 102.3 91.5 98.4L96 79L103 57L94 52L87 70L82 54C79.5 45.8 72.1 40 63.5 40H56V36C56 33.8 57.8 32 60 32H77V24H58Z" fill="#202734"/>
    <circle cx="70" cy="19" r="13" fill="#202734"/>
    <path d="M27 65H92C96.4 65 100 68.6 100 73V80H24V68C24 66.3 25.3 65 27 65Z" fill="#0B0E14"/>
    <path d="M29 67H95C97.2 67 99 68.8 99 71V76H26V70C26 68.3 27.3 67 29 67Z" fill="#D9DEE8"/>
    <path d="M19 80H110C112.2 80 114 81.8 114 84V88C114 90.2 112.2 92 110 92H19C16.8 92 15 90.2 15 88V84C15 81.8 16.8 80 19 80Z" fill="#181C24"/>
    <path d="M63 44L80 57L75 72L55 73L48 57L63 44Z" fill="#4EA0FF"/>
    <path d="M58 44C60.9 47 66.1 47 69 44L72 49L63 56L54 49L58 44Z" fill="#F4C39A"/>
    <path d="M55 24.5C55 16.5 61.5 10 69.5 10C76.3 10 82.1 14.7 83.6 21.1C81 21.6 79.2 23.6 78 25.8C76.2 24.3 73.9 23.4 71.4 23.4C67.8 23.4 64.5 25.3 62.7 28.2C60 27.7 57.4 26.4 55.5 24.4L55 24.5Z" fill="#F7C9A2"/>
  </g>
  <g aria-label="POLOKAZ" transform="translate(126 28)">
    <path d="M0 68V0H31.6C39.4 0 45.5 2 49.8 6.1C54.2 10.2 56.4 15.8 56.4 22.8C56.4 29.9 54.2 35.6 49.8 39.8C45.5 43.9 39.4 46 31.6 46H18.2V68H0ZM18.2 30.9H29.4C33.1 30.9 35.9 30.2 37.7 28.7C39.6 27.2 40.5 24.9 40.5 21.9C40.5 19 39.6 16.8 37.7 15.3C35.9 13.7 33.1 13 29.4 13H18.2V30.9Z" fill="#0A84FF" stroke="#202734" stroke-width="5" stroke-linejoin="round"/>
    <path d="M95 69.3C84.3 69.3 75.6 66.1 69 59.8C62.5 53.4 59.2 45.2 59.2 35.1C59.2 25 62.5 16.8 69 10.5C75.6 4.1 84.3 0.9 95 0.9C105.6 0.9 114.2 4.1 120.8 10.5C127.3 16.8 130.6 25 130.6 35.1C130.6 45.2 127.3 53.4 120.8 59.8C114.2 66.1 105.6 69.3 95 69.3ZM95 53.4C100.3 53.4 104.7 51.7 108.2 48.2C111.7 44.7 113.4 40.3 113.4 35.1C113.4 29.9 111.7 25.5 108.2 22C104.7 18.5 100.3 16.8 95 16.8C89.6 16.8 85.2 18.5 81.7 22C78.2 25.5 76.4 29.9 76.4 35.1C76.4 40.3 78.2 44.7 81.7 48.2C85.2 51.7 89.6 53.4 95 53.4Z" fill="#0A84FF" stroke="#202734" stroke-width="5" stroke-linejoin="round"/>
    <path d="M138.4 68V0H156.6V52.8H190.7V68H138.4Z" fill="#0A84FF" stroke="#202734" stroke-width="5" stroke-linejoin="round"/>
    <path d="M228.3 69.3C217.7 69.3 209 66.1 202.4 59.8C195.8 53.4 192.5 45.2 192.5 35.1C192.5 25 195.8 16.8 202.4 10.5C209 4.1 217.7 0.9 228.3 0.9C238.9 0.9 247.6 4.1 254.1 10.5C260.7 16.8 264 25 264 35.1C264 45.2 260.7 53.4 254.1 59.8C247.6 66.1 238.9 69.3 228.3 69.3ZM228.3 53.4C233.6 53.4 238 51.7 241.5 48.2C245 44.7 246.8 40.3 246.8 35.1C246.8 29.9 245 25.5 241.5 22C238 18.5 233.6 16.8 228.3 16.8C222.9 16.8 218.5 18.5 215 22C211.5 25.5 209.8 29.9 209.8 35.1C209.8 40.3 211.5 44.7 215 48.2C218.5 51.7 222.9 53.4 228.3 53.4Z" fill="#0A84FF" stroke="#202734" stroke-width="5" stroke-linejoin="round"/>
    <path d="M271.8 68V0H290V27.8L315.6 0H337.5L309.7 29.8L339.3 68H317.2L297.5 42.1L290 50V68H271.8Z" fill="#0A84FF" stroke="#202734" stroke-width="5" stroke-linejoin="round"/>
    <path d="M334.2 68L363.9 0H382.1L411.9 68H392.3L387 55.1H359L353.8 68H334.2ZM365 40.8H381L373 21.3L365 40.8Z" fill="#0A84FF" stroke="#202734" stroke-width="5" stroke-linejoin="round"/>
    <path d="M415.7 68V56.3L445.2 16.1H416.7V0H469.7V11.7L440.2 51.9H470V68H415.7Z" fill="#0A84FF" stroke="#202734" stroke-width="5" stroke-linejoin="round"/>
  </g>
</svg>
